<svg xmlns="http://www.w3.org/2000/svg" width="136.711" height="60" viewBox="0 0 136.711 60">
  <g id="SRI_Logo_with_Text-01" data-name="SRI Logo with Text-01" transform="translate(0 0.52)">
    <path id="Path_1" data-name="Path 1" d="M21.836,21.381V-.52H20.7a2.642,2.642,0,0,0-2.637,2.645l.013,11.6v3.892s-13.978-.025-15.435-.025A2.641,2.641,0,0,0,0,20.232H0v1.148Z" transform="translate(0 0)" fill="#ff6d40"/>
    <path id="Path_2" data-name="Path 2" d="M24.8-.52H23.667V23.213H0v1.132a2.641,2.641,0,0,0,2.637,2.644H24.8a2.641,2.641,0,0,0,2.637-2.644h0V2.125A2.641,2.641,0,0,0,24.8-.52Z" transform="translate(0 0)" fill="#ff6d40"/>
    <path id="Path_3" data-name="Path 3" d="M229.07,21.381V-.52h1.139a2.641,2.641,0,0,1,2.637,2.644h0l-.013,11.6v3.892s13.979-.025,15.435-.025a2.641,2.641,0,0,1,2.637,2.644h0v1.148Z" transform="translate(-191.052 0)" fill="#ff6d40"/>
    <path id="Path_4" data-name="Path 4" d="M197.957-.52h1.127V23.213h23.667v1.132a2.641,2.641,0,0,1-2.637,2.644H197.957a2.641,2.641,0,0,1-2.637-2.644h0V2.125A2.642,2.642,0,0,1,197.957-.52Z" transform="translate(-162.904)" fill="#ff6d40"/>
    <path id="Path_5" data-name="Path 5" d="M229.07,229v21.908h1.139a2.641,2.641,0,0,0,2.637-2.644h0l-.013-11.6v-3.89s13.979.025,15.435.025a2.641,2.641,0,0,0,2.637-2.639V229Z" transform="translate(-191.052 -191.428)" fill="#ff6d40"/>
    <path id="Path_6" data-name="Path 6" d="M197.957,222.751h1.127V199.017h23.667v-1.134a2.641,2.641,0,0,0-2.637-2.644H197.957a2.641,2.641,0,0,0-2.637,2.644h0v22.223a2.641,2.641,0,0,0,2.637,2.644Z" transform="translate(-162.904 -163.271)" fill="#ff6d40"/>
    <path id="Path_7" data-name="Path 7" d="M21.836,229v21.908H20.7a2.641,2.641,0,0,1-2.637-2.644h0l.013-11.6v-3.89s-13.978.025-15.435.025A2.641,2.641,0,0,1,0,230.162V229Z" transform="translate(0 -191.428)" fill="#ff6d40"/>
    <path id="Path_8" data-name="Path 8" d="M24.8,222.751H23.667V199.017H0v-1.134a2.641,2.641,0,0,1,2.637-2.644H24.8a2.641,2.641,0,0,1,2.637,2.644h0v22.223A2.64,2.64,0,0,1,24.8,222.75Z" transform="translate(0 -163.271)" fill="#ff6d40"/>
    <path id="Path_9" data-name="Path 9" d="M418.4,89.778c0-7.52-16.52-5.545-16.52-17.785,0-6.75,5.872-10.813,13.392-10.813a24.51,24.51,0,0,1,9.606,1.812l-.385,6.257a26.287,26.287,0,0,0-9.276-1.756c-3.512,0-5.6,1.756-5.6,4.113,0,6.916,16.686,5.16,16.686,17.619,0,6.8-5.16,11.472-14.381,11.472a25.955,25.955,0,0,1-10.539-2.141l1.041-6.37a23.493,23.493,0,0,0,9.825,2.2C415.988,94.388,418.4,92.742,418.4,89.778Z" transform="translate(-334.773 -51.46)" fill="#ff6d40"/>
    <path id="Path_10" data-name="Path 10" d="M600.521,84.671v.11l8.562,17.29h-8.288l-7.08-15.314h-4.886V102.07H581.31V63.978c3.074-.276,7.08-.5,11.251-.5,10.1,0,15.04,3.623,15.04,11.141A10.169,10.169,0,0,1,600.521,84.671Zm-11.692-3.733h4.282c4.061,0,6.752-2.2,6.752-5.819,0-4.337-2.581-5.653-6.861-5.653-1.867,0-3.238.11-4.172.166Z" transform="translate(-484.832 -53.378)" fill="#ff6d40"/>
    <path id="Path_11" data-name="Path 11" d="M785.364,102.913H777.73V64.49h7.634Z" transform="translate(-648.653 -54.221)" fill="#ff6d40"/>
  </g>
</svg>
